<?xml version="1.0" encoding="iso-8859-1"?>
<!-- Uploaded to: SVG Repo, www.svgrepo.com, Generator: SVG Repo Mixer Tools -->
<!-- From https://www.svgrepo.com/svg/880/compact-disc (CC0 License) and edited by Teages -->
<!-- Share with CC BY NC SA 4.0 -->
<svg width="512.001" height="512.001" xmlns="http://www.w3.org/2000/svg" version="1.1" xml:space="preserve">
 <defs>
  <filter id="svg_5_blur" x="-50%" y="-50%" width="200%" height="200%">
   <feGaussianBlur in="SourceGraphic" stdDeviation="8"/>
  </filter>
 </defs>
 <g>
  <path d="m256.00074,175.93814c-44.217,0 -80.063,35.844 -80.063,80.063c0,44.217 35.845,80.063 80.063,80.063s80.063,-35.845 80.063,-80.063c0,-44.219 -35.847,-80.063 -80.063,-80.063zm0,120.093c-22.109,0 -40.031,-17.922 -40.031,-40.031s17.923,-40.031 40.031,-40.031c22.108,0 40.031,17.922 40.031,40.031s-17.922,40.031 -40.031,40.031z" fill="#CBBBA0" id="svg_1" transform="rotate(9 256.001 256.001)"/>
  <!-- <circle cx="256.00686" cy="255.99698" r="40.031" fill="#FFFFFF" id="svg_3" transform="rotate(9 256.007 255.997)"/> -->
  <path d="m256.00116,7.80606c-137.075,0 -248.196,111.119 -248.196,248.194c0,137.074 111.12,248.194 248.194,248.194s248.195,-111.12 248.195,-248.194c0.001,-137.075 -111.12,-248.194 -248.193,-248.194zm0,328.257c-44.217,0 -80.063,-35.845 -80.063,-80.063s35.845,-80.063 80.063,-80.063s80.063,35.844 80.063,80.063c0,44.218 -35.847,80.063 -80.063,80.063z" fill="#606060" id="svg_4" transform="rotate(9 256 256)"/>
  <path d="m16.04751,52.27947l0,168.132c44.217,0 80.063,35.844 80.063,80.063c0,44.217 -35.845,80.063 -80.063,80.063l0,168.132c137.074,0 248.194,-111.12 248.194,-248.194c0,-137.077 -111.121,-248.196 -248.194,-248.196z" fill="#000000" id="svg_5" opacity="0.08" filter="url(#svg_5_blur)" transform="rotate(159 140.145 300.474)"/>
  <g id="svg_6" transform="rotate(9 256 256.001)">
   <path d="m256.00097,512.00105c-68.38,0 -132.667,-26.629 -181.02,-74.98c-48.352,-48.354 -74.981,-112.641 -74.981,-181.021s26.629,-132.666 74.98,-181.019c48.353,-48.352 112.64,-74.98 181.02,-74.98s132.667,26.629 181.02,74.98c48.352,48.353 74.98,112.639 74.98,181.02s-26.629,132.667 -74.98,181.02c-48.352,48.351 -112.639,74.98 -181.019,74.98zm0,-496.39c-64.21,0 -124.578,25.004 -169.981,70.409c-45.404,45.403 -70.409,105.77 -70.409,169.98s25.005,124.577 70.409,169.98c45.403,45.404 105.771,70.409 169.981,70.409s124.578,-25.004 169.981,-70.409c45.403,-45.403 70.408,-105.77 70.408,-169.98s-25.004,-124.577 -70.409,-169.98c-45.404,-45.404 -105.77,-70.409 -169.98,-70.409z" fill="#1D1D1B" id="svg_7"/>
   <path d="m256.00097,343.86905c-48.451,0 -87.869,-39.417 -87.869,-87.869s39.417,-87.869 87.869,-87.869s87.869,39.417 87.869,87.869s-39.419,87.869 -87.869,87.869zm0,-160.126c-39.843,0 -72.258,32.414 -72.258,72.258s32.414,72.258 72.258,72.258s72.258,-32.414 72.258,-72.258s-32.416,-72.258 -72.258,-72.258z" fill="#1D1D1B" id="svg_8"/>
   <path d="m256.00097,303.83705c-26.377,0 -47.837,-21.46 -47.837,-47.837s21.46,-47.837 47.837,-47.837s47.837,21.46 47.837,47.837s-21.461,47.837 -47.837,47.837zm0,-80.062c-17.769,0 -32.226,14.457 -32.226,32.226s14.457,32.226 32.226,32.226s32.226,-14.457 32.226,-32.226s-14.457,-32.226 -32.226,-32.226z" fill="#1D1D1B" id="svg_9"/>
  </g>
  <g id="svg_10" transform="rotate(9 342.631 160.39)">
   <path d="m487.99245,268.37479l-15.611,0c0,-110.477 -89.88,-200.359 -200.359,-200.359l0,-15.61c119.088,0.001 215.97,96.884 215.97,215.969z" fill="#FFFFFF" id="svg_11"/>
   <path d="m202.67145,80.34279l-5.403,-14.645c13.412,-4.949 27.387,-8.565 41.54,-10.751l2.382,15.428c-13.124,2.026 -26.084,5.379 -38.519,9.968z" fill="#FFFFFF" id="svg_12"/>
  </g>
 </g>
</svg>